<svg width="18" height="20" fill="none" xmlns="http://www.w3.org/2000/svg"><g id="Group" stroke-width="1.5"><g id="Path" stroke-linecap="round" stroke-linejoin="round"><path d="M12.508 1.667V5" stroke="#2E1066"/><path d="M12.508 1.667V5" stroke="#410F9E"/><path d="M12.508 1.667V5" stroke="#453888"/><path d="M12.508 1.667V5" stroke="#5946D7"/><path d="M12.508 1.667V5" stroke="#6B59CC"/></g><g id="Path_2" stroke-linecap="round" stroke-linejoin="round"><path d="M5.841 1.667V5" stroke="#2E1066"/><path d="M5.841 1.667V5" stroke="#410F9E"/><path d="M5.841 1.667V5" stroke="#453888"/><path d="M5.841 1.667V5" stroke="#5946D7"/><path d="M5.841 1.667V5" stroke="#6B59CC"/></g><g id="Path_3" stroke-linecap="round" stroke-linejoin="round"><path d="M1.675 8.333h15" stroke="#2E1066"/><path d="M1.675 8.333h15" stroke="#410F9E"/><path d="M1.675 8.333h15" stroke="#453888"/><path d="M1.675 8.333h15" stroke="#5946D7"/><path d="M1.675 8.333h15" stroke="#6B59CC"/></g><g id="Rectangle 1"><rect x="1.675" y="3.333" width="15" height="15" rx="3" stroke="#2E1066"/><rect x="1.675" y="3.333" width="15" height="15" rx="3" stroke="#410F9E"/><rect x="1.675" y="3.333" width="15" height="15" rx="3" stroke="#453888"/><rect x="1.675" y="3.333" width="15" height="15" rx="3" stroke="#5946D7"/><rect x="1.675" y="3.333" width="15" height="15" rx="3" stroke="#6B59CC"/></g></g></svg>