<svg width="100" height="59" fill="none" xmlns="http://www.w3.org/2000/svg"><path d="M89.554 24.323c-3.05-3.052-7.273-4.974-11.965-4.974-1.547 0-3.05.234-4.504.608l-2.44-6.662v-.046l-.046-.046-3.753-10.277h7.929c.185 0 .42.046.608.141.188.095.329.282.47.47.094.187.14.374.14.61 0 .188-.046.421-.14.608a1.78 1.78 0 01-.424.424c-.138.094-.328.14-.513.187h-.705l-.046 2.768h.561c.19-.046.375-.046.47-.046.61-.047 1.22-.28 1.737-.61a4.392 4.392 0 001.313-1.314c.328-.657.516-1.36.516-2.017a4.3 4.3 0 00-.516-2.019c-.375-.608-.893-1.126-1.503-1.454a4.291 4.291 0 00-2.016-.516h-9.854c-.187 0-.328 0-.516.095-.703.234-1.077 1.031-.795 1.783l2.72 7.411h-25.76l-2.436-6.52h3.424V1.52c0-.751-.612-1.362-1.408-1.362h-8.773V1.52c0 .798.608 1.406 1.36 1.406h2.439l.046.046 2.863 7.696-7.365 10.885a16.481 16.481 0 00-8.258-2.204c-4.692 0-8.915 1.922-11.965 4.974A16.8 16.8 0 005.521 36.24c0 1.305.146 2.572.421 3.788h2.852a14.326 14.326 0 01-.505-3.788c0-3.894 1.548-7.413 4.13-9.945 2.533-2.581 6.098-4.13 9.995-4.13 2.44 0 4.692.61 6.708 1.688l-7.039 10.371c-.89.187-1.547.985-1.547 1.97 0 1.126.893 2.017 2.017 2.017.564 0 1.033-.234 1.408-.562h25.102c.374 0 .751-.141 1.031-.47l18.722-20.833.844 2.299.844 2.3.939 2.582 2.204 6.003 2.206 5.959c-.141.282-.234.564-.234.893a2 2 0 002.016 2.016c1.127 0 2.02-.89 2.02-2.016 0-.798-.519-1.501-1.222-1.83L74.07 22.587a14.427 14.427 0 013.52-.423c3.894 0 7.413 1.549 9.991 4.13a14.035 14.035 0 014.13 9.945c0 1.31-.18 2.581-.515 3.788h2.863c.275-1.216.42-2.483.42-3.788a16.8 16.8 0 00-4.925-11.916zM24.994 34.88l6.427-9.479c.328.282.657.562.939.893a14.091 14.091 0 014.081 8.586H24.995zm14.215 0c-.328-4.13-2.11-7.837-4.879-10.557a17.01 17.01 0 00-1.36-1.22l6.24-9.244 7.834 21.02h-7.835zm10.323-1.267l-7.975-21.35h25.756l.423 1.173-18.204 20.177zm16.139-9.29a16.65 16.65 0 00-4.974 11.916c0 1.305.145 2.572.42 3.788h2.866a14.143 14.143 0 01-.516-3.788c0-3.894 1.596-7.413 4.128-9.945.751-.752 1.55-1.362 2.393-1.924l-.985-2.676a18.192 18.192 0 00-3.332 2.63zM13.12 54.658c0 .446-.057.832-.175 1.163a2.456 2.456 0 01-1.244 1.43 4.624 4.624 0 01-.971.35 7.064 7.064 0 01-1.136.181c-.402.033-.816.051-1.248.051H0V46.328h8.195c.329 0 .66.014.992.042.331.028.65.079.95.155.301.076.581.18.843.315.259.134.487.307.677.527.192.217.342.48.451.786.109.308.162.67.162 1.09 0 .746-.185 1.34-.553 1.777-.367.438-.948.729-1.741.875.56.039 1.036.124 1.436.256.4.132.724.31.976.537.252.226.435.502.553.828.117.326.175.707.178 1.144m-3.16-.363c0-.261-.043-.471-.133-.631a.876.876 0 00-.419-.368 2.33 2.33 0 00-.738-.17 12.01 12.01 0 00-1.08-.042H3.103v2.437h4.489c.418 0 .78-.014 1.08-.042.3-.028.548-.085.737-.175a.92.92 0 00.419-.373c.09-.16.134-.372.134-.633m-6.856-3.5h4.578c.312 0 .57-.027.77-.082.202-.056.361-.132.477-.227a.732.732 0 00.243-.338 1.294 1.294 0 000-.828.769.769 0 00-.243-.346 1.35 1.35 0 00-.477-.243 2.733 2.733 0 00-.77-.093H3.106v2.16-.002zm23.437 4.577v2.451H14.777V46.326h11.648v2.454h-8.457v1.898h8.023v2.454h-8.023v2.245h8.575zm15.344-9.099V57.78h-3.1v-8.99h-5.074v4.644c0 .742-.185 1.415-.557 2-.357.585-.886 1.087-1.56 1.487-.686.4-1.5.715-2.471.93a9.43 9.43 0 01-.93.157v-2.516c.23-.042.414-.1.602-.171.342-.114.628-.257.857-.414a2.45 2.45 0 00.558-.5c.143-.17.243-.328.3-.5a1.48 1.48 0 00.086-.47v-7.089h.028v-.071h11.261zm17.312 5.765c0 .987-.18 1.861-.544 2.615a5.097 5.097 0 01-1.558 1.896c-.676.509-1.494.893-2.459 1.152-.962.259-2.046.388-3.244.388-1.198 0-2.285-.13-3.251-.388-.967-.26-1.792-.645-2.474-1.152a5.142 5.142 0 01-1.575-1.896c-.37-.756-.553-1.628-.553-2.615 0-.988.185-1.86.553-2.616a5.16 5.16 0 011.575-1.896c.68-.509 1.505-.892 2.474-1.151.966-.26 2.051-.389 3.251-.389 1.2 0 2.282.13 3.245.389.964.258 1.782.645 2.458 1.151a5.1 5.1 0 011.558 1.896c.363.757.544 1.628.544 2.616zm-3.14 0c0-.428-.07-.858-.206-1.286a2.772 2.772 0 00-.729-1.152c-.35-.34-.825-.615-1.427-.827-.603-.213-1.37-.32-2.303-.32-.624 0-1.175.051-1.649.148a4.983 4.983 0 00-1.23.407 3.302 3.302 0 00-.87.608c-.233.232-.42.481-.561.745a3.086 3.086 0 00-.296.828 4.307 4.307 0 00-.088.851c0 .28.03.573.088.862a2.986 2.986 0 00.858 1.575c.233.23.525.428.87.6.346.17.755.302 1.23.402a8.107 8.107 0 001.648.148c.932 0 1.7-.107 2.303-.32.604-.21 1.078-.487 1.427-.83.35-.342.592-.724.729-1.151a4.22 4.22 0 00.205-1.286m32.331 0c0 .985-.185 1.857-.543 2.615a5.137 5.137 0 01-1.557 1.901c-.67.5-1.5.886-2.458 1.143-.957.256-2.044.386-3.244.386-1.2 0-2.287-.13-3.259-.386-.97-.257-1.785-.643-2.472-1.143a5.15 5.15 0 01-2.042-3.473H70.94v4.8h-3.115V46.374h3.115v4.188h1.956c.007-.028.01-.058.017-.086.013-.072.044-.13.057-.201.072-.3.185-.571.315-.844a5.056 5.056 0 011.572-1.901c.687-.514 1.501-.886 2.472-1.156a.422.422 0 01.13-.028c.442-.113.913-.201 1.415-.257.544-.072 1.115-.1 1.714-.1 1.2 0 2.287.13 3.244.387.957.27 1.785.643 2.458 1.156.67.5 1.2 1.142 1.556 1.901.359.758.546 1.628.546 2.615m-3.145 0c0-.427-.071-.857-.2-1.285a2.95 2.95 0 00-.73-1.157c-.355-.342-.827-.615-1.428-.827-.602-.215-1.372-.315-2.301-.315h-.028c-.615 0-1.159.044-1.628.143-.472.1-.872.243-1.23.414-.086.044-.171.086-.243.144-.243.13-.444.286-.63.458a3.03 3.03 0 00-.499.656c-.027.028-.041.058-.057.086-.014.044-.044.072-.058.116a2.721 2.721 0 00-.243.714 4.32 4.32 0 00-.086.858c0 .257.028.5.072.758 0 .028.014.072.014.1 0 .028.014.072.028.1.058.256.143.499.27.728.144.27.329.513.558.742.185.171.386.329.629.458.071.058.157.1.242.143.359.171.757.301 1.23.4a7.91 7.91 0 001.629.158h.027c.93 0 1.7-.114 2.301-.329.602-.215 1.07-.485 1.43-.828.342-.342.584-.714.728-1.142a4.42 4.42 0 00.201-1.286m14.754-5.729v2.52h-6.84v8.982H90.05V46.326h9.948z" fill="#fff"/><path d="M100 39.655H0v2.081h100v-2.081z" fill="#fff"/></svg>