<svg width="87" height="50" fill="none" xmlns="http://www.w3.org/2000/svg"><path d="M77.913 20.855a14.734 14.734 0 00-10.41-4.293c-1.345 0-2.653.202-3.919.525l-2.122-5.75v-.04l-.04-.04-3.265-8.868h6.898c.161 0 .366.04.53.122.162.081.285.243.408.405.082.161.122.323.122.527 0 .161-.04.363-.122.524a1.543 1.543 0 01-.369.366c-.12.081-.285.121-.446.161h-.614l-.04 2.39h.489c.165-.04.326-.04.408-.04.531-.04 1.063-.242 1.511-.528a3.804 3.804 0 001.143-1.133c.285-.567.448-1.174.448-1.74 0-.61-.162-1.216-.448-1.743A3.521 3.521 0 0066.767.445 3.758 3.758 0 0065.013 0H56.44c-.162 0-.285 0-.448.082-.612.201-.938.89-.692 1.538l2.366 6.397h-22.41l-2.12-5.628h2.979V1.175C36.115.527 35.582 0 34.89 0h-7.633v1.175c0 .689.529 1.214 1.183 1.214h2.122l.04.04 2.491 6.641-6.408 9.394a14.428 14.428 0 00-7.184-1.902 14.734 14.734 0 00-10.41 4.293 14.44 14.44 0 00-4.286 10.284c0 1.125.126 2.219.366 3.268h2.48a12.272 12.272 0 01-.438-3.268c0-3.361 1.346-6.399 3.593-8.584 2.203-2.227 5.305-3.564 8.695-3.564 2.123 0 4.082.527 5.836 1.457l-6.124 8.95c-.774.162-1.346.85-1.346 1.7 0 .973.777 1.74 1.755 1.74.49 0 .9-.2 1.225-.484h21.838c.326 0 .654-.122.898-.405l16.288-17.98.734 1.984.734 1.986.817 2.227 1.917 5.181 1.92 5.143a1.666 1.666 0 00-.204.77c0 .972.775 1.74 1.755 1.74.98 0 1.756-.768 1.756-1.74 0-.688-.45-1.295-1.062-1.578l-3.796-10.326c.98-.243 2-.365 3.062-.365a12.26 12.26 0 018.693 3.564 12.064 12.064 0 013.144 11.852h2.49c.24-1.05.367-2.143.367-3.268a14.44 14.44 0 00-4.285-10.284zm-56.167 9.11l5.591-8.18c.286.243.572.485.817.77a12.121 12.121 0 013.55 7.41h-9.958zm12.367 0c-.286-3.564-1.837-6.763-4.245-9.11-.368-.365-.776-.73-1.183-1.054l5.428-7.977 6.816 18.141h-6.816zm8.98-1.093l-6.938-18.425h22.408l.368 1.012-15.837 17.413zm14.041-8.017a14.312 14.312 0 00-4.327 10.284c0 1.125.127 2.219.366 3.268h2.493a12.07 12.07 0 013.142-11.852 13.32 13.32 0 012.083-1.66l-.858-2.31a15.809 15.809 0 00-2.898 2.27zm-45.719 26.18c0 .385-.05.718-.153 1.003a2.136 2.136 0 01-1.082 1.233 4.05 4.05 0 01-.845.304 6.191 6.191 0 01-.988.156c-.35.028-.71.044-1.086.044H0v-9.929h7.132c.286 0 .573.012.863.036.288.024.565.068.827.134.261.066.505.156.732.271a1.96 1.96 0 01.982 1.134c.095.265.14.578.14.94 0 .644-.16 1.157-.48 1.534-.32.378-.825.63-1.515.755.487.034.901.108 1.25.221.348.114.63.268.848.463.22.196.379.433.481.715.103.281.153.61.155.988m-2.748-.314c0-.225-.038-.407-.117-.544a.76.76 0 00-.364-.318 2.035 2.035 0 00-.642-.147 10.497 10.497 0 00-.94-.036H2.7v2.103h3.905c.364 0 .678-.012.94-.036a1.94 1.94 0 00.641-.152.799.799 0 00.364-.32c.079-.139.117-.322.117-.548m-5.965-3.02h3.983c.272 0 .495-.023.67-.071a1.13 1.13 0 00.415-.196.632.632 0 00.21-.291 1.108 1.108 0 000-.714.663.663 0 00-.21-.3 1.18 1.18 0 00-.415-.21 2.398 2.398 0 00-.67-.08H2.702v1.865-.002zm20.392 3.95v2.115H12.857v-9.926h10.134v2.117h-7.357V43.6h6.979v2.117h-6.98v1.938h7.46zm13.349-7.853v9.926h-2.698v-7.757h-4.413v4.007a3.14 3.14 0 01-.485 1.727c-.31.505-.77.938-1.356 1.283-.598.345-1.306.617-2.151.802a8.104 8.104 0 01-.809.136v-2.172c.2-.035.36-.085.523-.147.298-.098.548-.222.747-.357a2.15 2.15 0 00.485-.431 1.34 1.34 0 00.261-.431c.05-.148.075-.284.075-.408v-6.116h.024v-.062h9.797zm15.06 4.975c0 .852-.157 1.607-.473 2.258a4.404 4.404 0 01-1.356 1.636c-.59.439-1.3.77-2.138.994-.837.223-1.78.335-2.823.335-1.042 0-1.988-.112-2.829-.335-.84-.224-1.559-.557-2.152-.994a4.446 4.446 0 01-1.37-1.636c-.322-.653-.481-1.405-.481-2.258 0-.852.16-1.604.48-2.257a4.463 4.463 0 011.37-1.636c.592-.44 1.31-.77 2.153-.994.841-.224 1.785-.335 2.829-.335 1.044 0 1.986.111 2.823.335.839.224 1.55.557 2.138.994.588.437 1.04.984 1.356 1.636.316.653.473 1.405.473 2.257zm-2.732 0c0-.369-.06-.74-.18-1.11a2.39 2.39 0 00-.633-.993c-.304-.293-.718-.53-1.241-.715-.525-.183-1.193-.275-2.004-.275a7.26 7.26 0 00-1.434.128 4.453 4.453 0 00-1.07.349 2.85 2.85 0 00-.757.525c-.203.2-.366.415-.489.642a2.7 2.7 0 00-.258.715c-.05.247-.076.493-.076.734 0 .242.026.495.077.745.05.251.136.489.257.718.123.23.286.443.489.64.203.198.457.37.756.518a4.54 4.54 0 001.07.347c.413.086.89.128 1.435.128.81 0 1.479-.092 2.004-.276.525-.183.937-.42 1.241-.716a2.4 2.4 0 00.634-.994c.119-.37.179-.74.179-1.11zm28.129.002c0 .85-.162 1.602-.474 2.257a4.461 4.461 0 01-1.354 1.64c-.583.431-1.305.765-2.138.986-.833.222-1.779.334-2.823.334s-1.99-.112-2.835-.334c-.844-.221-1.553-.554-2.15-.986a4.466 4.466 0 01-1.368-1.64 4.417 4.417 0 01-.409-1.357h-1.631v4.143h-2.71v-9.94h2.71v3.614h1.702c.006-.024.008-.05.014-.074.012-.062.038-.112.05-.172.063-.26.161-.493.274-.728a4.37 4.37 0 011.368-1.64c.597-.444 1.305-.765 2.15-.998a.37.37 0 01.113-.024 8.943 8.943 0 011.231-.222c.473-.062.97-.086 1.491-.086 1.044 0 1.99.112 2.823.334.833.233 1.553.554 2.138.997a4.335 4.335 0 011.354 1.64c.312.655.475 1.406.475 2.258m-2.736 0c0-.37-.062-.74-.175-1.11a2.541 2.541 0 00-.634-.998c-.31-.295-.72-.53-1.243-.714-.523-.186-1.193-.271-2.002-.271h-.024c-.535 0-1.008.035-1.416.123a4.71 4.71 0 00-1.07.358c-.075.038-.15.073-.212.123a2.603 2.603 0 00-.547.395c-.173.172-.324.37-.435.567-.024.024-.036.05-.05.074-.012.038-.038.062-.05.1a2.335 2.335 0 00-.212.617c-.05.247-.074.492-.074.74 0 .221.024.431.062.655 0 .023.013.061.013.085a.23.23 0 00.024.086c.05.222.124.431.235.629.125.233.286.443.485.64a2.6 2.6 0 00.547.395c.063.05.137.086.211.124.312.148.658.26 1.07.346.411.085.884.135 1.417.135h.024c.809 0 1.479-.098 2.002-.283.523-.186.931-.42 1.243-.715.298-.295.51-.616.634-.985.113-.37.175-.74.175-1.11M87 39.844v2.175h-5.95v7.751h-2.704v-9.926H87z" fill="#000" fill-opacity=".9"/><path d="M87 34.085H0v1.797h87v-1.797z" fill="#000" fill-opacity=".9"/></svg>