<svg width="18" height="20" viewBox="0 0 18 20" fill="none" xmlns="http://www.w3.org/2000/svg">
<g id="Group">
<g id="Path">
<path d="M12.508 1.6665V4.99984" stroke="#2E1066" stroke-width="1.5" stroke-linecap="round" stroke-linejoin="round"/>
<path d="M12.508 1.6665V4.99984" stroke="#410F9E" stroke-width="1.5" stroke-linecap="round" stroke-linejoin="round"/>
<path d="M12.508 1.6665V4.99984" stroke="#453888" stroke-width="1.5" stroke-linecap="round" stroke-linejoin="round"/>
<path d="M12.508 1.6665V4.99984" stroke="#5946D7" stroke-width="1.5" stroke-linecap="round" stroke-linejoin="round"/>
<path d="M12.508 1.6665V4.99984" stroke="#6B59CC" stroke-width="1.5" stroke-linecap="round" stroke-linejoin="round"/>
</g>
<g id="Path_2">
<path d="M5.84147 1.6665V4.99984" stroke="#2E1066" stroke-width="1.5" stroke-linecap="round" stroke-linejoin="round"/>
<path d="M5.84147 1.6665V4.99984" stroke="#410F9E" stroke-width="1.5" stroke-linecap="round" stroke-linejoin="round"/>
<path d="M5.84147 1.6665V4.99984" stroke="#453888" stroke-width="1.5" stroke-linecap="round" stroke-linejoin="round"/>
<path d="M5.84147 1.6665V4.99984" stroke="#5946D7" stroke-width="1.5" stroke-linecap="round" stroke-linejoin="round"/>
<path d="M5.84147 1.6665V4.99984" stroke="#6B59CC" stroke-width="1.5" stroke-linecap="round" stroke-linejoin="round"/>
</g>
<g id="Path_3">
<path d="M1.6748 8.33317H16.6748" stroke="#2E1066" stroke-width="1.5" stroke-linecap="round" stroke-linejoin="round"/>
<path d="M1.6748 8.33317H16.6748" stroke="#410F9E" stroke-width="1.5" stroke-linecap="round" stroke-linejoin="round"/>
<path d="M1.6748 8.33317H16.6748" stroke="#453888" stroke-width="1.5" stroke-linecap="round" stroke-linejoin="round"/>
<path d="M1.6748 8.33317H16.6748" stroke="#5946D7" stroke-width="1.5" stroke-linecap="round" stroke-linejoin="round"/>
<path d="M1.6748 8.33317H16.6748" stroke="#6B59CC" stroke-width="1.5" stroke-linecap="round" stroke-linejoin="round"/>
</g>
<g id="Rectangle 1">
<rect x="1.6748" y="3.33301" width="15" height="15" rx="3" stroke="#2E1066" stroke-width="1.5"/>
<rect x="1.6748" y="3.33301" width="15" height="15" rx="3" stroke="#410F9E" stroke-width="1.5"/>
<rect x="1.6748" y="3.33301" width="15" height="15" rx="3" stroke="#453888" stroke-width="1.5"/>
<rect x="1.6748" y="3.33301" width="15" height="15" rx="3" stroke="#5946D7" stroke-width="1.5"/>
<rect x="1.6748" y="3.33301" width="15" height="15" rx="3" stroke="#6B59CC" stroke-width="1.5"/>
</g>
</g>
</svg>
