<svg width="87" height="50" viewBox="0 0 87 50" fill="none" xmlns="http://www.w3.org/2000/svg">
<path d="M77.9127 20.8548C75.2591 18.2205 71.5855 16.5621 67.5035 16.5621C66.1576 16.5621 64.8499 16.7637 63.5844 17.087L61.4619 11.3374V11.2975L61.4217 11.2576L58.1565 2.38883H65.0551C65.216 2.38883 65.4212 2.42874 65.5842 2.51056C65.7472 2.59238 65.8699 2.75403 65.9926 2.91568C66.0751 3.07733 66.1153 3.23898 66.1153 3.44254C66.1153 3.60419 66.0751 3.80576 65.9926 3.96741C65.9101 4.08914 65.7894 4.21088 65.6244 4.33261C65.5037 4.41444 65.3388 4.45435 65.1778 4.49426H64.5642L64.524 6.88309H65.0128C65.1778 6.84318 65.3388 6.84318 65.4212 6.84318C65.9524 6.80326 66.4835 6.6017 66.9321 6.31632C67.3808 6.03293 67.7892 5.62781 68.0748 5.18277C68.3605 4.616 68.5235 4.00932 68.5235 3.44254C68.5235 2.83386 68.3605 2.22718 68.0748 1.70032C67.7489 1.17545 67.2983 0.728422 66.7672 0.445036C66.238 0.16165 65.6244 0 65.0128 0H56.4404C56.2775 0 56.1547 0 55.9918 0.0818228C55.3802 0.283386 55.0543 0.971895 55.2997 1.62049L57.6656 8.01663H35.2558L33.1353 2.38883H36.1149V1.17545C36.1149 0.526859 35.5817 0 34.8896 0H27.2568V1.17545C27.2568 1.86396 27.7859 2.38883 28.4397 2.38883H30.5622L30.6024 2.42874L33.0931 9.07035L26.6854 18.464C24.5609 17.2506 22.1125 16.5621 19.5011 16.5621C15.4191 16.5621 11.7455 18.2205 9.09191 20.8548C6.4383 23.4851 4.80469 27.1292 4.80469 31.1385C4.80469 32.2641 4.93143 33.3577 5.17084 34.4075H7.65143C7.36374 33.3657 7.21285 32.2681 7.21285 31.1385C7.21285 27.7778 8.55877 24.7404 10.806 22.5551C13.0089 20.328 16.1112 18.9909 19.5011 18.9909C21.6236 18.9909 23.5831 19.5177 25.3375 20.4477L19.2134 29.3983C18.4389 29.56 17.8675 30.2485 17.8675 31.0986C17.8675 32.0705 18.6441 32.8389 19.6218 32.8389C20.1127 32.8389 20.5211 32.6373 20.8471 32.3539H42.6855C43.0114 32.3539 43.3394 32.2322 43.5828 31.9488L59.8706 13.9697L60.6049 15.9534L61.3392 17.9391L62.156 20.1663L64.0733 25.3471L65.9926 30.49C65.8699 30.7334 65.7894 30.9769 65.7894 31.2603C65.7894 32.2322 66.564 33.0005 67.5437 33.0005C68.5235 33.0005 69.3 32.2322 69.3 31.2603C69.3 30.5718 68.8494 29.9651 68.2378 29.6817L64.4415 19.3561C65.4212 19.1126 66.4412 18.9909 67.5035 18.9909C70.8914 18.9909 73.9534 20.328 76.1966 22.5551C78.4016 24.7404 79.7898 27.7778 79.7898 31.1385C79.7898 32.2681 79.6328 33.3657 79.3411 34.4075H81.8318C82.0712 33.3577 82.1979 32.2641 82.1979 31.1385C82.1979 27.1292 80.5663 23.4851 77.9127 20.8548ZM21.7463 29.9651L27.3372 21.7848C27.6229 22.0283 27.9086 22.2698 28.154 22.5551C30.1136 24.4969 31.4192 27.0893 31.7049 29.9651H21.7463ZM34.1131 29.9651C33.8274 26.4008 32.2763 23.2017 29.8681 20.8548C29.4999 20.4896 29.0915 20.1244 28.6852 19.8011L34.1131 11.8244L40.9292 29.9651H34.1131ZM43.0939 28.8715L36.1551 10.4474H58.5629L58.9311 11.4592L43.0939 28.8715ZM57.1345 20.8548C54.4406 23.4851 52.807 27.1292 52.807 31.1385C52.807 32.2641 52.9338 33.3577 53.1732 34.4075H55.6659C55.3741 33.3657 55.2172 32.2681 55.2172 31.1385C55.2172 27.7778 56.6054 24.7404 58.8083 22.5551C59.4622 21.9065 60.1563 21.3797 60.8906 20.8947L60.0335 18.5857C58.9713 19.2343 57.9915 20.0027 57.1345 20.8548Z" fill="black" fill-opacity="0.9"/>
<path d="M11.4151 47.0346C11.4151 47.4198 11.3648 47.7531 11.2622 48.0384C11.1596 48.3238 11.0168 48.5673 10.8357 48.7729C10.6547 48.9784 10.4354 49.144 10.1799 49.2718C9.92437 49.3995 9.64272 49.4993 9.33491 49.5751C9.0271 49.651 8.69716 49.7028 8.3471 49.7308C7.99704 49.7587 7.63692 49.7747 7.26071 49.7747H0V39.8462H7.13195C7.41763 39.8462 7.70532 39.8582 7.99503 39.8821C8.28272 39.9061 8.56035 39.95 8.82189 40.0158C9.08343 40.0817 9.32686 40.1715 9.5542 40.2872C9.77952 40.403 9.97869 40.5527 10.1437 40.7422C10.3106 40.9298 10.4414 41.1554 10.536 41.4208C10.6305 41.6862 10.6768 41.9995 10.6768 42.3607C10.6768 43.0053 10.5159 43.5182 10.196 43.8954C9.87609 44.2726 9.37112 44.5241 8.68106 44.6498C9.16792 44.6837 9.58236 44.7576 9.93041 44.8713C10.2785 44.9851 10.5601 45.1387 10.7794 45.3343C10.9987 45.5299 11.1576 45.7674 11.2602 46.0488C11.3628 46.3301 11.4131 46.6594 11.4151 47.0366M8.66698 46.7233C8.66698 46.4978 8.62875 46.3162 8.55029 46.1785C8.47183 46.0408 8.35112 45.935 8.18615 45.8612C8.02118 45.7873 7.80793 45.7374 7.54437 45.7135C7.28284 45.6895 6.96899 45.6776 6.60485 45.6776H2.69988V47.781H6.60485C6.96899 47.781 7.28284 47.769 7.54437 47.7451C7.80591 47.7211 8.02118 47.6712 8.18615 47.5934C8.35112 47.5156 8.47183 47.4078 8.55029 47.2721C8.62875 47.1344 8.66698 46.9508 8.66698 46.7253M2.70189 43.7058H6.68532C6.95692 43.7058 7.18023 43.6819 7.35526 43.634C7.53029 43.5861 7.66911 43.5202 7.7697 43.4384C7.8723 43.3566 7.94272 43.2588 7.98094 43.147C8.01917 43.0333 8.03929 42.9155 8.03929 42.7898C8.03929 42.6641 8.01917 42.5463 7.98094 42.4326C7.94272 42.3188 7.8723 42.219 7.7697 42.1332C7.6671 42.0474 7.53029 41.9776 7.35526 41.9237C7.18023 41.8718 6.95692 41.8439 6.68532 41.8439H2.70189V43.7078V43.7058Z" fill="black" fill-opacity="0.9"/>
<path d="M23.0936 47.6548V49.7702H12.8574V39.8438H22.991V41.9612H15.6338V43.5996H22.6128V45.717H15.6338V47.6548H23.0936Z" fill="black" fill-opacity="0.9"/>
<path d="M36.4433 39.8018V49.7283H33.7454V41.9711H29.3315V45.9784C29.3315 46.619 29.1705 47.1997 28.8466 47.7046C28.5368 48.2095 28.0761 48.6426 27.4907 48.9879C26.8931 49.3331 26.185 49.6045 25.34 49.7901C25.0785 49.852 24.8169 49.8879 24.5312 49.9258V47.7545C24.7304 47.7186 24.8914 47.6687 25.0543 47.6069C25.3521 47.5091 25.6015 47.3853 25.8007 47.2496C26.012 47.1139 26.1608 46.9662 26.2856 46.8186C26.4103 46.6709 26.4968 46.5352 26.5471 46.3875C26.5974 46.2398 26.6215 46.1041 26.6215 45.9804V39.8636H26.6457V39.8018H36.4413H36.4433Z" fill="black" fill-opacity="0.9"/>
<path d="M51.503 44.7774C51.503 45.6295 51.3461 46.3839 51.0302 47.0345C50.7143 47.6871 50.2637 48.2319 49.6742 48.6709C49.0848 49.11 48.3746 49.4413 47.5356 49.6648C46.6987 49.8883 45.7552 50.0001 44.713 50.0001C43.6709 50.0001 42.7254 49.8883 41.8844 49.6648C41.0435 49.4413 40.3252 49.108 39.7317 48.6709C39.1383 48.2339 38.6836 47.6871 38.3617 47.0345C38.0398 46.3819 37.8809 45.6295 37.8809 44.7774C37.8809 43.9252 38.0418 43.1729 38.3617 42.5203C38.6816 41.8677 39.1403 41.3229 39.7317 40.8838C40.3232 40.4448 41.0415 40.1135 41.8844 39.89C42.7254 39.6664 43.6689 39.5547 44.713 39.5547C45.7572 39.5547 46.6987 39.6664 47.5356 39.89C48.3746 40.1135 49.0868 40.4468 49.6742 40.8838C50.2617 41.3209 50.7143 41.8677 51.0302 42.5203C51.3461 43.1729 51.503 43.9252 51.503 44.7774ZM48.7709 44.7774C48.7709 44.4082 48.7106 44.037 48.5919 43.6678C48.4732 43.2986 48.2619 42.9673 47.9581 42.6739C47.6543 42.3806 47.2399 42.1431 46.7168 41.9595C46.1917 41.7759 45.5238 41.6841 44.713 41.6841C44.1699 41.6841 43.691 41.728 43.2786 41.8118C42.8662 41.8956 42.5101 42.0134 42.2083 42.161C41.9065 42.3107 41.6551 42.4843 41.4519 42.6859C41.2487 42.8855 41.0857 43.101 40.963 43.3285C40.8423 43.556 40.7558 43.7955 40.7055 44.043C40.6552 44.2904 40.629 44.5359 40.629 44.7774C40.629 45.0189 40.6552 45.2723 40.7055 45.5218C40.7558 45.7732 40.8423 46.0107 40.963 46.2402C41.0857 46.4697 41.2487 46.6832 41.4519 46.8808C41.6551 47.0784 41.9086 47.25 42.2083 47.3977C42.5101 47.5454 42.8662 47.6591 43.2786 47.7449C43.691 47.8308 44.1678 47.8727 44.713 47.8727C45.5238 47.8727 46.1917 47.7809 46.7168 47.5973C47.2419 47.4137 47.6543 47.1762 47.9581 46.8808C48.2619 46.5855 48.4732 46.2562 48.5919 45.887C48.7106 45.5178 48.7709 45.1466 48.7709 44.7774Z" fill="black" fill-opacity="0.9"/>
<path d="M76.8991 44.7789C76.8991 45.6291 76.7381 46.3815 76.4263 47.036C76.1164 47.6886 75.6557 48.2314 75.0723 48.6765C74.4889 49.1075 73.7666 49.4408 72.9337 49.6623C72.1008 49.8839 71.1553 49.9956 70.1111 49.9956C69.067 49.9956 68.1214 49.8839 67.2764 49.6623C66.4315 49.4408 65.7233 49.1075 65.1258 48.6765C64.5283 48.2334 64.0817 47.6906 63.7578 47.036C63.5566 46.6249 63.4178 46.1779 63.3494 45.679H61.7178V49.822H59.0078V39.8815H61.7178V43.4957H63.4198C63.4258 43.4718 63.4278 43.4458 63.4338 43.4219C63.4459 43.36 63.4721 43.3101 63.4841 43.2502C63.5465 42.9908 63.6451 42.7573 63.7578 42.5218C64.0817 41.8672 64.5283 41.3124 65.1258 40.8814C65.7233 40.4383 66.4315 40.117 67.2764 39.8835C67.3127 39.8716 67.3509 39.8596 67.3891 39.8596C67.7734 39.7618 68.1838 39.686 68.6204 39.6381C69.0931 39.5762 69.5901 39.5522 70.1111 39.5522C71.1553 39.5522 72.1008 39.664 72.9337 39.8855C73.7666 40.119 74.4869 40.4403 75.0723 40.8834C75.6557 41.3144 76.1164 41.8692 76.4263 42.5238C76.7381 43.1784 76.9011 43.9288 76.9011 44.7809M74.165 44.7809C74.165 44.4117 74.1026 44.0405 73.9899 43.6713C73.8652 43.3021 73.654 42.9688 73.3562 42.6735C73.0464 42.3781 72.636 42.1426 72.1129 41.959C71.5898 41.7734 70.9199 41.6876 70.1111 41.6876H70.087C69.5518 41.6876 69.0791 41.7235 68.6706 41.8114C68.2602 41.8972 67.9122 42.0209 67.6004 42.1686C67.5259 42.2065 67.4515 42.2424 67.3891 42.2923C67.1779 42.4041 67.0028 42.5398 66.8419 42.6875C66.6689 42.8591 66.518 43.0567 66.4073 43.2542C66.3832 43.2782 66.3711 43.3041 66.357 43.3281C66.345 43.366 66.3188 43.3899 66.3067 43.4279C66.2082 43.6254 66.1337 43.835 66.0955 44.0445C66.0452 44.292 66.0211 44.5374 66.0211 44.7849C66.0211 45.0064 66.0452 45.216 66.0834 45.4395C66.0834 45.4634 66.0955 45.5014 66.0955 45.5253C66.0955 45.5493 66.1076 45.5872 66.1196 45.6111C66.1699 45.8326 66.2444 46.0422 66.355 46.2398C66.4798 46.4733 66.6407 46.6828 66.8399 46.8804C67.0008 47.0281 67.1759 47.1638 67.3871 47.2755C67.4495 47.3254 67.5239 47.3613 67.5983 47.3992C67.9102 47.5469 68.2562 47.6587 68.6686 47.7445C69.0791 47.8303 69.5518 47.8802 70.085 47.8802H70.1091C70.9179 47.8802 71.5878 47.7824 72.1109 47.5968C72.634 47.4112 73.0424 47.1777 73.3542 46.8824C73.6519 46.587 73.8632 46.2657 73.9879 45.8965C74.1006 45.5273 74.163 45.1561 74.163 44.7869" fill="black" fill-opacity="0.9"/>
<path d="M87.0006 39.8438V42.019H81.0496V49.7702H78.3457V39.8438H87.0006Z" fill="black" fill-opacity="0.9"/>
<path d="M86.9997 34.0854H0V35.8816H86.9997V34.0854Z" fill="black" fill-opacity="0.9"/>
</svg>
