<svg width="100" height="59" viewBox="0 0 100 59" fill="none" xmlns="http://www.w3.org/2000/svg">
<path d="M89.5539 24.3234C86.5038 21.271 82.2813 19.3493 77.5893 19.3493C76.0423 19.3493 74.5391 19.5829 73.0846 19.9575L70.645 13.2953V13.249L70.5987 13.2028L66.8456 2.92622H74.775C74.96 2.92622 75.1959 2.97247 75.3832 3.06728C75.5705 3.16209 75.7116 3.3494 75.8526 3.53671C75.9474 3.72402 75.9937 3.91133 75.9937 4.1472C75.9937 4.33451 75.9474 4.56806 75.8526 4.75537C75.7578 4.89643 75.6191 5.03749 75.4294 5.17855C75.2907 5.27336 75.1011 5.31961 74.9161 5.36586H74.2108L74.1645 8.13388H74.7265C74.9161 8.08763 75.1011 8.08763 75.1959 8.08763C75.8064 8.04138 76.4169 7.80782 76.9325 7.47714C77.4482 7.14877 77.9176 6.67934 78.246 6.16366C78.5744 5.50692 78.7617 4.80393 78.7617 4.1472C78.7617 3.4419 78.5744 2.73891 78.246 2.12842C77.8714 1.52024 77.3534 1.00225 76.7429 0.673882C76.1347 0.345512 75.4294 0.158203 74.7265 0.158203H64.8731C64.6858 0.158203 64.5447 0.158203 64.3574 0.253014C63.6544 0.486572 63.2798 1.28437 63.5619 2.03592L66.2814 9.44735H40.5229L38.0855 2.92622H41.5103V1.52024C41.5103 0.768692 40.8975 0.158203 40.102 0.158203H31.3285V1.52024C31.3285 2.31804 31.9367 2.92622 32.6883 2.92622H35.1279L35.1742 2.97247L38.037 10.6683L30.6718 21.5531C28.2298 20.1471 25.4156 19.3493 22.414 19.3493C17.722 19.3493 13.4995 21.271 10.4493 24.3234C7.3992 27.3712 5.52148 31.5938 5.52148 36.2395C5.52148 37.5437 5.66717 38.811 5.94235 40.0273H8.79361C8.46293 38.8202 8.2895 37.5484 8.2895 36.2395C8.2895 32.3453 9.83653 28.8258 12.4196 26.2936C14.9517 23.7129 18.5175 22.1636 22.414 22.1636C24.8536 22.1636 27.106 22.7741 29.1224 23.8517L22.0833 34.223C21.193 34.4104 20.5363 35.2082 20.5363 36.1933C20.5363 37.3194 21.4289 38.2097 22.5527 38.2097C23.117 38.2097 23.5864 37.9762 23.961 37.6478H49.0628C49.4374 37.6478 49.8143 37.5067 50.0941 37.1784L68.8158 16.3454L69.6599 18.644L70.5039 20.9449L71.4428 23.5256L73.6465 29.5288L75.8526 35.488C75.7116 35.7701 75.6191 36.0522 75.6191 36.3806C75.6191 37.5067 76.5094 38.397 77.6355 38.397C78.7617 38.397 79.6543 37.5067 79.6543 36.3806C79.6543 35.5828 79.1363 34.8798 78.4333 34.5514L74.0697 22.5867C75.1959 22.3046 76.3683 22.1636 77.5893 22.1636C81.4835 22.1636 85.003 23.7129 87.5814 26.2936C90.1159 28.8258 91.7115 32.3453 91.7115 36.2395C91.7115 37.5484 91.5311 38.8202 91.1958 40.0273H94.0586C94.3338 38.811 94.4795 37.5437 94.4795 36.2395C94.4795 31.5938 92.6041 27.3712 89.5539 24.3234ZM24.9947 34.8798L31.421 25.401C31.7494 25.6831 32.0778 25.9629 32.3599 26.2936C34.6122 28.5436 36.113 31.5475 36.4414 34.8798H24.9947ZM39.2094 34.8798C38.881 30.7497 37.0981 27.0429 34.3301 24.3234C33.9069 23.9002 33.4375 23.477 32.9704 23.1024L39.2094 13.8595L47.044 34.8798H39.2094ZM49.5322 33.6126L41.5565 12.2639H67.3127L67.7359 13.4363L49.5322 33.6126ZM65.6709 24.3234C62.5745 27.3712 60.6968 31.5938 60.6968 36.2395C60.6968 37.5437 60.8424 38.811 61.1176 40.0273H63.9828C63.6475 38.8202 63.4671 37.5484 63.4671 36.2395C63.4671 32.3453 65.0627 28.8258 67.5948 26.2936C68.3464 25.5421 69.1442 24.9316 69.9882 24.3697L69.0031 21.6941C67.7821 22.4457 66.656 23.336 65.6709 24.3234Z" fill="white"/>
<path d="M13.1209 54.658C13.1209 55.1043 13.0631 55.4905 12.9451 55.8211C12.8272 56.1518 12.663 56.4339 12.4549 56.6721C12.2468 56.9103 11.9947 57.1022 11.701 57.2502C11.4074 57.3982 11.0836 57.5139 10.7298 57.6017C10.376 57.6896 9.99676 57.7497 9.5944 57.7821C9.19203 57.8145 8.7781 57.833 8.34567 57.833H0V46.3285H8.19536C8.52373 46.3285 8.85441 46.3424 9.1874 46.3701C9.51808 46.3979 9.8372 46.4487 10.1378 46.525C10.4384 46.6014 10.7183 46.7054 10.9796 46.8395C11.2386 46.9737 11.4675 47.1471 11.6571 47.3668C11.849 47.5842 11.9994 47.8478 12.108 48.153C12.2167 48.4606 12.2699 48.8236 12.2699 49.2422C12.2699 49.9891 12.0849 50.5834 11.7172 51.0205C11.3496 51.4575 10.7691 51.7489 9.97595 51.8946C10.5356 51.9339 11.0119 52.0195 11.412 52.1513C11.812 52.2831 12.1358 52.4611 12.3878 52.6878C12.6399 52.9144 12.8226 53.1896 12.9405 53.5156C13.0585 53.8417 13.1163 54.2232 13.1186 54.6603M9.95976 54.2972C9.95976 54.0359 9.91583 53.8255 9.82564 53.6659C9.73546 53.5064 9.59671 53.3838 9.40709 53.2982C9.21746 53.2127 8.97234 53.1549 8.66941 53.1271C8.36879 53.0994 8.00805 53.0855 7.58949 53.0855H3.10332V55.5228H7.59181C8.01036 55.5228 8.3711 55.509 8.67172 55.4812C8.97234 55.4535 9.21978 55.3956 9.4094 55.3055C9.59902 55.2153 9.73777 55.0904 9.82795 54.9332C9.91814 54.7736 9.96208 54.5608 9.96208 54.2995M3.10563 50.8008H7.6843C7.99649 50.8008 8.25317 50.773 8.45435 50.7175C8.65554 50.662 8.8151 50.5857 8.93072 50.4909C9.04865 50.3961 9.12959 50.2828 9.17353 50.1533C9.21746 50.0215 9.24059 49.8851 9.24059 49.7394C9.24059 49.5937 9.21746 49.4572 9.17353 49.3254C9.12959 49.1936 9.04865 49.078 8.93072 48.9786C8.81278 48.8791 8.65554 48.7982 8.45435 48.7358C8.25317 48.6756 7.99649 48.6433 7.6843 48.6433H3.10563V50.8031V50.8008Z" fill="white"/>
<path d="M26.5431 55.3771V57.8283H14.7773V46.3262H26.4252V48.7797H17.9685V50.6782H25.9905V53.1317H17.9685V55.3771H26.5431Z" fill="white"/>
<path d="M41.8874 46.2777V57.7799H38.7864V48.7914H33.7128V53.4348C33.7128 54.1771 33.5278 54.85 33.1555 55.435C32.7994 56.0201 32.2699 56.5219 31.5969 56.922C30.9101 57.322 30.0962 57.6365 29.1249 57.8516C28.8243 57.9233 28.5237 57.9649 28.1953 58.0088V55.4929C28.4242 55.4512 28.6092 55.3934 28.7966 55.3217C29.1388 55.2084 29.4255 55.0651 29.6545 54.9078C29.8973 54.7506 30.0684 54.5794 30.2118 54.4083C30.3551 54.2372 30.4546 54.0799 30.5124 53.9088C30.5702 53.7377 30.598 53.5805 30.598 53.4371V46.3494H30.6257V46.2777H41.8851H41.8874Z" fill="white"/>
<path d="M59.1987 52.0427C59.1987 53.0301 59.0183 53.9042 58.6553 54.6581C58.2922 55.4142 57.7742 56.0455 57.0967 56.5543C56.4214 57.063 55.6028 57.4469 54.6385 57.7059C53.6765 57.9649 52.592 58.0944 51.3941 58.0944C50.1963 58.0944 49.1094 57.9649 48.1428 57.7059C47.1762 57.4469 46.3507 57.0607 45.6685 56.5543C44.9863 56.0479 44.4637 55.4142 44.0937 54.6581C43.7237 53.9019 43.541 53.0301 43.541 52.0427C43.541 51.0553 43.726 50.1835 44.0937 49.4273C44.4614 48.6711 44.9886 48.0398 45.6685 47.5311C46.3483 47.0223 47.1739 46.6385 48.1428 46.3795C49.1094 46.1205 50.194 45.991 51.3941 45.991C52.5943 45.991 53.6765 46.1205 54.6385 46.3795C55.6028 46.6385 56.4214 47.0246 57.0967 47.5311C57.7719 48.0375 58.2922 48.6711 58.6553 49.4273C59.0183 50.1835 59.1987 51.0553 59.1987 52.0427ZM56.0584 52.0427C56.0584 51.6149 55.989 51.1848 55.8526 50.7569C55.7161 50.3291 55.4733 49.9453 55.1241 49.6053C54.7749 49.2654 54.2986 48.9902 53.6973 48.7775C53.0938 48.5647 52.3261 48.4584 51.3941 48.4584C50.7698 48.4584 50.2194 48.5092 49.7453 48.6064C49.2713 48.7035 48.862 48.8399 48.5151 49.0134C48.1682 49.1868 47.8792 49.388 47.6456 49.6215C47.4121 49.8528 47.2248 50.1025 47.0837 50.3661C46.945 50.6298 46.8455 50.9073 46.7877 51.194C46.7299 51.4807 46.6998 51.7652 46.6998 52.045C46.6998 52.3248 46.7299 52.6185 46.7877 52.9075C46.8455 53.1989 46.945 53.4741 47.0837 53.74C47.2248 54.006 47.4121 54.2534 47.6456 54.4823C47.8792 54.7113 48.1706 54.9101 48.5151 55.0812C48.862 55.2524 49.2713 55.3842 49.7453 55.4836C50.2194 55.583 50.7675 55.6316 51.3941 55.6316C52.3261 55.6316 53.0938 55.5252 53.6973 55.3125C54.3009 55.1021 54.7749 54.8246 55.1241 54.4823C55.4733 54.1401 55.7161 53.7585 55.8526 53.3307C55.989 52.9029 56.0584 52.4728 56.0584 52.045" fill="white"/>
<path d="M88.3889 52.0451C88.3889 53.0302 88.2039 53.902 87.8455 54.6605C87.4894 55.419 86.9598 56.0457 86.2892 56.5613C85.6186 57.0608 84.7884 57.447 83.8311 57.7037C82.8737 57.9604 81.7869 58.0899 80.5867 58.0899C79.3865 58.0899 78.2997 57.9604 77.3284 57.7037C76.3572 57.447 75.5432 57.0608 74.8564 56.5613C74.1696 56.0457 73.6562 55.419 73.2839 54.6605C73.0527 54.1841 72.8931 53.6661 72.8145 53.088H70.9391V57.8887H67.8242V46.3726H70.9391V50.5605H72.8954C72.9024 50.5328 72.9047 50.5027 72.9116 50.4749C72.9255 50.4033 72.9556 50.3454 72.9694 50.2738C73.0411 49.9731 73.1544 49.7026 73.2839 49.4297C73.6562 48.6712 74.1696 48.0284 74.8564 47.5289C75.5432 47.0155 76.3572 46.6432 77.3284 46.3726C77.3701 46.3588 77.414 46.3449 77.4579 46.3449C77.8996 46.2316 78.3713 46.1437 78.8732 46.0882C79.4166 46.0165 79.9878 45.9888 80.5867 45.9888C81.7869 45.9888 82.8737 46.1183 83.8311 46.3749C84.7884 46.6455 85.6163 47.0178 86.2892 47.5312C86.9598 48.0307 87.4894 48.6735 87.8455 49.432C88.2039 50.1905 88.3912 51.06 88.3912 52.0474M85.2463 52.0474C85.2463 51.6196 85.1746 51.1895 85.0451 50.7617C84.9017 50.3339 84.6589 49.9477 84.3167 49.6055C83.9606 49.2632 83.4888 48.9903 82.8876 48.7776C82.2863 48.5625 81.5163 48.4631 80.5867 48.4631H80.5589C79.9438 48.4631 79.4004 48.507 78.931 48.6065C78.4592 48.7059 78.0592 48.8493 77.7007 49.0204C77.6152 49.0643 77.5296 49.106 77.4579 49.1638C77.2151 49.2933 77.0139 49.4505 76.8289 49.6216C76.6301 49.8205 76.4566 50.0494 76.3294 50.2784C76.3017 50.3061 76.2878 50.3362 76.2716 50.3639C76.2578 50.4079 76.2277 50.4356 76.2138 50.4796C76.1005 50.7085 76.015 50.9513 75.971 51.1941C75.9132 51.4809 75.8855 51.7653 75.8855 52.052C75.8855 52.3087 75.9132 52.5515 75.9571 52.8105C75.9571 52.8383 75.971 52.8822 75.971 52.91C75.971 52.9377 75.9849 52.9816 75.9988 53.0094C76.0566 53.2661 76.1421 53.5089 76.2693 53.7378C76.4127 54.0084 76.5977 54.2512 76.8266 54.4801C77.0116 54.6512 77.2128 54.8085 77.4556 54.938C77.5273 54.9958 77.6129 55.0374 77.6984 55.0814C78.0569 55.2525 78.4546 55.382 78.9287 55.4814C79.4004 55.5809 79.9438 55.6387 80.5566 55.6387H80.5844C81.514 55.6387 82.284 55.5254 82.8853 55.3103C83.4865 55.0952 83.9559 54.8247 84.3144 54.4824C84.6566 54.1402 84.8994 53.7679 85.0428 53.3401C85.1723 52.9123 85.244 52.4822 85.244 52.0543" fill="white"/>
<path d="M99.999 46.3262V48.8468H93.1587V57.8283H90.0508V46.3262H99.999Z" fill="white"/>
<path d="M100 39.6549H0V41.7361H100V39.6549Z" fill="white"/>
</svg>
